<svg xmlns="http://www.w3.org/2000/svg" width="88.5" height="87.5" viewBox="0 0 88.5 87.5">
  <path id="_123" data-name="123" d="M87.992,56.474,76.864,84.765C75.1,89.245,71.868,92,68.371,92H6.918C4.072,92,2.3,87.421,3.733,83.775L14.86,55.485c1.762-4.48,5-7.235,8.494-7.235H84.807c2.846,0,4.619,4.578,3.185,8.224ZM23.354,40.958h50.4V30.021c0-6.041-3.3-10.937-7.375-10.937H41.792L31.958,4.5H7.375C3.3,4.5,0,9.4,0,15.437V78.794L10.613,51.811C13.246,45.117,18.129,40.958,23.354,40.958Z" transform="translate(0 -4.5)" fill="#fff"/>
</svg>
