<svg xmlns="http://www.w3.org/2000/svg" width="87.5" height="87.5" viewBox="0 0 87.5 87.5">
  <g id="그룹_7" data-name="그룹 7" transform="translate(0 0)">
    <path id="패스_6" data-name="패스 6" d="M25.649,7.377A18.193,18.193,0,1,0,43.923,25.57,18.233,18.233,0,0,0,25.649,7.377Zm0,30.008A11.819,11.819,0,1,1,37.521,25.566,11.845,11.845,0,0,1,25.649,37.385Z" transform="translate(18.06 18.052)" fill="#fff"/>
    <circle id="타원_10" data-name="타원 10" cx="6.27" cy="6.27" r="6.27" transform="translate(60.178 14.746)" fill="#fff"/>
    <path id="패스_7" data-name="패스 7" d="M88.184,18.073A22.358,22.358,0,0,0,75.391,5.3,32.142,32.142,0,0,0,64.769,3.267c-4.679-.2-6.161-.262-18.027-.262s-13.386,0-18.027.262A31.889,31.889,0,0,0,18.1,5.3,22.334,22.334,0,0,0,5.31,18.073,31.9,31.9,0,0,0,3.274,28.679C3.065,33.346,3,34.825,3,46.677s0,13.356.272,18A31.954,31.954,0,0,0,5.31,75.286a22.382,22.382,0,0,0,12.8,12.769,32.034,32.034,0,0,0,10.617,2.183c4.679.2,6.161.267,18.027.267s13.386,0,18.027-.267A32.186,32.186,0,0,0,75.4,88.205,22.4,22.4,0,0,0,88.194,75.432,31.9,31.9,0,0,0,90.23,64.826c.209-4.667.272-6.147.272-18s0-13.356-.272-18A31.883,31.883,0,0,0,88.184,18.073ZM82.266,64.317a24.432,24.432,0,0,1-1.511,8.189,14.5,14.5,0,0,1-8.319,8.3,24.255,24.255,0,0,1-8.114,1.509c-4.616.213-5.918.267-17.755.267s-13.056,0-17.759-.267a24.133,24.133,0,0,1-8.11-1.509,14.493,14.493,0,0,1-8.353-8.3,24.611,24.611,0,0,1-1.511-8.1c-.209-4.609-.258-5.909-.258-17.727s0-13.031.258-17.732a24.408,24.408,0,0,1,1.511-8.184A14.5,14.5,0,0,1,20.7,12.46a24.377,24.377,0,0,1,8.11-1.509c4.621-.209,5.918-.267,17.759-.267s13.056,0,17.755.267a24.134,24.134,0,0,1,8.114,1.509,14.522,14.522,0,0,1,8.319,8.306,24.611,24.611,0,0,1,1.511,8.1c.209,4.614.262,5.909.262,17.732s0,13.089-.209,17.727h-.053Z" transform="translate(-3.002 -3.005)" fill="#fff"/>
  </g>
</svg>
