<svg xmlns="http://www.w3.org/2000/svg" width="87.5" height="87.5" viewBox="0 0 87.5 87.5">
  <path id="Icon_awesome-phone-square-alt" data-name="Icon awesome-phone-square-alt" d="M78.125,2.25H9.375A9.375,9.375,0,0,0,0,11.625v68.75A9.375,9.375,0,0,0,9.375,89.75h68.75A9.375,9.375,0,0,0,87.5,80.375V11.625A9.375,9.375,0,0,0,78.125,2.25Zm-3.2,60.033-2.93,12.7a2.93,2.93,0,0,1-2.854,2.271A56.645,56.645,0,0,1,12.5,20.609a3.066,3.066,0,0,1,2.271-2.854l12.7-2.93a3.56,3.56,0,0,1,.658-.076,3.178,3.178,0,0,1,2.693,1.775L36.678,30.2a3.5,3.5,0,0,1,.236,1.154,3.32,3.32,0,0,1-1.074,2.268l-7.4,6.055A45.3,45.3,0,0,0,50.076,61.311l6.055-7.4A3.32,3.32,0,0,1,58.4,52.836a3.487,3.487,0,0,1,1.154.236l13.672,5.859A3.174,3.174,0,0,1,75,61.625,3.4,3.4,0,0,1,74.924,62.283Z" transform="translate(0 -2.25)" fill="#fff"/>
</svg>
